<svg width="146" height="40" viewBox="0 0 146 40" fill="none" xmlns="http://www.w3.org/2000/svg">
<g clip-path="url(#clip0_405_17)">
<path d="M57.9874 10.7842L58.2086 9.55219C58.2712 9.30004 57.9874 9.17321 57.7669 9.0796C56.5666 8.63721 55.5558 8.41602 54.5449 8.41602C51.5441 8.41602 49.9964 10.406 49.9964 13.5012V16.5647L47.8804 17.1015V18.3018C47.8804 18.6174 48.0382 18.7752 48.3537 18.7752H49.9964V31.6301C49.9964 31.9457 50.1542 32.1035 50.4698 32.1035H52.3337C52.6493 32.1035 52.807 31.9457 52.807 31.6301V18.7752H56.5976C56.9139 18.7752 57.0717 18.6174 57.0717 18.3018V16.8803C57.0717 16.564 56.9131 16.4062 56.5976 16.4062H52.807V14.0055C52.807 11.6365 53.534 10.8469 55.2711 10.8469C55.8713 10.8469 56.7553 11.0364 57.5133 11.2893C57.7979 11.4161 57.924 11.1315 57.9874 10.7842Z" fill="#052B3B"/>
<path fill-rule="evenodd" clip-rule="evenodd" d="M73.4801 23.1651V23.1334C73.4801 20.3545 72.0268 16.0906 66.3097 16.0914C61.8564 16.0914 58.9507 18.8076 58.9507 24.2718C58.9507 30.494 63.1202 32.4205 66.5944 32.4205C69.7847 32.4205 71.8373 31.0307 72.8482 30.2411C73.1011 30.0833 73.2589 29.8938 73.1328 29.6409L72.47 28.504C72.2805 28.1876 72.0593 27.9982 71.8064 28.1876C70.8273 28.9456 69.1219 29.893 67.1636 29.9564C64.131 30.0191 62.1093 28.8822 61.8572 25.3763L71.3323 25.3129C72.975 25.3129 73.4801 24.4915 73.4801 23.1651ZM66.2154 18.5849C69.374 18.5849 70.4792 20.1016 70.6687 23.1334H61.8564C62.1093 19.8796 63.5618 18.5849 66.2154 18.5849Z" fill="#052B3B"/>
<path fill-rule="evenodd" clip-rule="evenodd" d="M89.8628 23.1334V23.1651C89.8628 24.4915 89.3578 25.3129 87.715 25.3129L78.2399 25.3763C78.4921 28.8822 80.5138 30.0191 83.5463 29.9564C85.5046 29.893 87.21 28.9456 88.1891 28.1876C88.442 27.9982 88.6632 28.1876 88.8527 28.504L89.5156 29.6409C89.6416 29.8938 89.4839 30.0833 89.231 30.2411C88.2201 31.0307 86.1674 32.4205 82.9771 32.4205C79.5029 32.4205 75.3334 30.494 75.3334 24.2718C75.3334 18.8076 78.2392 16.0914 82.6925 16.0914C88.4096 16.0906 89.8628 20.3545 89.8628 23.1334ZM87.0515 23.1334C86.862 20.1016 85.7568 18.5849 82.5981 18.5849C79.9453 18.5849 78.4921 19.8796 78.2392 23.1334H87.0515Z" fill="#052B3B"/>
<path fill-rule="evenodd" clip-rule="evenodd" d="M106.024 30.0199V16.8803C106.024 16.564 105.835 16.4379 105.551 16.4077C103.592 16.2182 101.097 16.0922 99.5493 16.0922C94.8431 16.0922 91.7162 19.0613 91.7162 24.2726C91.7162 27.8419 92.9799 32.4213 98.0017 32.4213C100.402 32.4213 102.234 30.8737 103.213 29.7994V30.9681C103.213 36.085 101.855 37.6326 97.4016 37.6326C96.1386 37.6326 94.4958 37.2536 93.5801 37.0007C93.2962 36.9056 93.1694 37.1585 93.1068 37.5058L92.8856 38.7695C92.8229 39.0217 93.1068 39.1794 93.328 39.2429C94.3071 39.5584 96.0751 40.0008 97.7496 40.0008C103.814 40.0008 106.024 37.5375 106.024 30.0199ZM103.213 18.7118V27.2712C102.14 28.3771 100.307 29.9247 98.5385 29.9247C95.0952 29.9247 94.5902 26.5449 94.5902 24.2711C94.5902 20.2911 96.4224 18.5857 99.5176 18.5857C100.591 18.5857 101.886 18.6166 103.213 18.7118Z" fill="#052B3B"/>
<path fill-rule="evenodd" clip-rule="evenodd" d="M107.878 24.2711C107.878 18.3335 111.131 16.0906 115.647 16.0906C120.133 16.0906 123.386 18.523 123.386 24.2711C123.386 29.5458 120.133 32.4198 115.647 32.4198C111.131 32.4198 107.878 29.5458 107.878 24.2711ZM120.512 24.2711C120.512 20.1333 118.617 18.5857 115.647 18.5857C112.647 18.5857 110.752 20.1333 110.752 24.2711C110.752 28.3454 112.647 29.9565 115.647 29.9565C118.617 29.9565 120.512 28.3454 120.512 24.2711Z" fill="#052B3B"/>
<path d="M139.693 31.9782L145.015 16.6961C145.113 16.3692 144.983 16.1405 144.624 16.1412H142.469C142.175 16.1412 141.979 16.2718 141.914 16.533L138.028 28.8762L134.175 16.533C134.11 16.2718 133.914 16.1412 133.62 16.1412H131.694C131.334 16.1412 131.204 16.37 131.302 16.6961L132.64 20.6142L129.93 28.9411L126.044 16.533C125.979 16.2718 125.783 16.1412 125.49 16.1412H123.334C122.975 16.1412 122.844 16.37 122.942 16.6961L128.265 31.9782C128.363 32.2394 128.527 32.37 128.82 32.37H130.812C131.105 32.37 131.269 32.2394 131.367 31.9782L133.979 24.37L136.591 31.9782C136.689 32.2394 136.852 32.37 137.146 32.37H139.137C139.432 32.37 139.595 32.2394 139.693 31.9782Z" fill="#052B3B"/>
<path d="M96.3106 9.49043C96.3106 10.2331 96.1399 10.8306 95.7985 11.2828C95.4571 11.732 94.9989 11.9566 94.4239 11.9566C93.81 11.9566 93.3353 11.7395 92.9999 11.3053L92.9595 11.8668H92.1958V4.9668H93.0269V7.54082C93.3623 7.12454 93.825 6.91641 94.4149 6.91641C95.0049 6.91641 95.4676 7.13952 95.803 7.58574C96.1414 8.03197 96.3106 8.6429 96.3106 9.41855V9.49043ZM95.4796 9.39609C95.4796 8.83008 95.3703 8.39284 95.1517 8.08437C94.933 7.77591 94.6186 7.62168 94.2083 7.62168C93.6603 7.62168 93.2664 7.87624 93.0269 8.38535V10.4877C93.2814 10.9968 93.6782 11.2514 94.2173 11.2514C94.6156 11.2514 94.9256 11.0971 95.1472 10.7887C95.3688 10.4802 95.4796 10.016 95.4796 9.39609Z" fill="#627282"/>
<path d="M98.8981 10.6494L100.03 7.00625H100.92L98.9655 12.617C98.6631 13.4256 98.1824 13.8299 97.5235 13.8299L97.3663 13.8164L97.0563 13.758V13.0842L97.281 13.1021C97.5625 13.1021 97.7811 13.0452 97.9368 12.9314C98.0955 12.8176 98.2258 12.6095 98.3276 12.307L98.5118 11.8129L96.7778 7.00625H97.6853L98.8981 10.6494Z" fill="#627282"/>
<path d="M103.983 11.8668V5.32617H105.915C106.493 5.32617 107.005 5.45495 107.451 5.7125C107.9 5.97005 108.248 6.33542 108.493 6.80859C108.739 7.28177 108.862 7.82383 108.862 8.43477V8.7627C108.862 9.38262 108.738 9.92767 108.489 10.3979C108.243 10.868 107.892 11.2304 107.433 11.485C106.978 11.7395 106.455 11.8668 105.866 11.8668H103.983ZM105.12 6.24258V10.9594H105.861C106.457 10.9594 106.914 10.7737 107.231 10.4023C107.552 10.028 107.715 9.49193 107.721 8.79414V8.43027C107.721 7.72051 107.567 7.17845 107.258 6.8041C106.95 6.42975 106.502 6.24258 105.915 6.24258H105.12Z" fill="#627282"/>
<path d="M109.684 9.3916C109.684 8.91543 109.778 8.48717 109.967 8.10684C110.156 7.7235 110.421 7.43001 110.762 7.22637C111.103 7.01973 111.496 6.91641 111.939 6.91641C112.595 6.91641 113.126 7.12754 113.534 7.5498C113.944 7.97207 114.166 8.5321 114.199 9.22988L114.203 9.48594C114.203 9.9651 114.11 10.3934 113.925 10.7707C113.742 11.148 113.478 11.44 113.134 11.6467C112.792 11.8533 112.397 11.9566 111.948 11.9566C111.262 11.9566 110.713 11.729 110.299 11.2738C109.889 10.8156 109.684 10.2062 109.684 9.44551V9.3916ZM110.775 9.48594C110.775 9.98607 110.879 10.3784 111.085 10.6629C111.292 10.9444 111.58 11.0852 111.948 11.0852C112.316 11.0852 112.602 10.9414 112.806 10.6539C113.013 10.3664 113.116 9.94564 113.116 9.3916C113.116 8.90046 113.01 8.51113 112.797 8.22363C112.587 7.93613 112.301 7.79238 111.939 7.79238C111.583 7.79238 111.3 7.93464 111.09 8.21914C110.88 8.50065 110.775 8.92292 110.775 9.48594Z" fill="#627282"/>
<path d="M117.123 11.0852C117.395 11.0852 117.622 11.0058 117.801 10.8471C117.981 10.6883 118.077 10.4922 118.089 10.2586H119.117C119.105 10.5611 119.011 10.8441 118.834 11.1076C118.658 11.3682 118.418 11.5748 118.116 11.7275C117.813 11.8803 117.487 11.9566 117.136 11.9566C116.457 11.9566 115.918 11.7365 115.519 11.2963C115.121 10.8561 114.922 10.2481 114.922 9.47246V9.36016C114.922 8.62044 115.119 8.02897 115.515 7.58574C115.91 7.13952 116.449 6.91641 117.132 6.91641C117.71 6.91641 118.18 7.08561 118.542 7.42402C118.908 7.75944 119.1 8.20117 119.117 8.74922H118.089C118.077 8.4707 117.981 8.2416 117.801 8.06191C117.625 7.88223 117.398 7.79238 117.123 7.79238C116.77 7.79238 116.497 7.92116 116.305 8.17871C116.114 8.43327 116.016 8.82109 116.013 9.34219V9.51738C116.013 10.0445 116.108 10.4383 116.296 10.6988C116.488 10.9564 116.764 11.0852 117.123 11.0852Z" fill="#627282"/>
<path d="M121.31 5.8248V7.00625H122.168V7.81484H121.31V10.5281C121.31 10.7138 121.346 10.8486 121.417 10.9324C121.492 11.0133 121.624 11.0537 121.813 11.0537C121.939 11.0537 122.066 11.0387 122.195 11.0088V11.8533C121.946 11.9222 121.706 11.9566 121.476 11.9566C120.637 11.9566 120.218 11.4939 120.218 10.5686V7.81484H119.418V7.00625H120.218V5.8248H121.31Z" fill="#627282"/>
<path d="M122.666 9.3916C122.666 8.91543 122.761 8.48717 122.949 8.10684C123.138 7.7235 123.403 7.43001 123.744 7.22637C124.086 7.01973 124.478 6.91641 124.921 6.91641C125.577 6.91641 126.109 7.12754 126.516 7.5498C126.926 7.97207 127.148 8.5321 127.181 9.22988L127.185 9.48594C127.185 9.9651 127.093 10.3934 126.907 10.7707C126.724 11.148 126.461 11.44 126.116 11.6467C125.775 11.8533 125.38 11.9566 124.93 11.9566C124.245 11.9566 123.695 11.729 123.282 11.2738C122.871 10.8156 122.666 10.2062 122.666 9.44551V9.3916ZM123.758 9.48594C123.758 9.98607 123.861 10.3784 124.068 10.6629C124.275 10.9444 124.562 11.0852 124.93 11.0852C125.299 11.0852 125.585 10.9414 125.788 10.6539C125.995 10.3664 126.098 9.94564 126.098 9.3916C126.098 8.90046 125.992 8.51113 125.779 8.22363C125.57 7.93613 125.284 7.79238 124.921 7.79238C124.565 7.79238 124.282 7.93464 124.072 8.21914C123.863 8.50065 123.758 8.92292 123.758 9.48594Z" fill="#627282"/>
<path d="M130.653 8.00352C130.51 7.97956 130.361 7.96758 130.209 7.96758C129.709 7.96758 129.372 8.15924 129.198 8.54258V11.8668H128.106V7.00625H129.149L129.175 7.5498C129.439 7.12754 129.804 6.91641 130.272 6.91641C130.427 6.91641 130.556 6.93737 130.658 6.9793L130.653 8.00352Z" fill="#627282"/>
<path d="M134.112 11.8668C134.064 11.774 134.023 11.6227 133.987 11.4131C133.639 11.7755 133.214 11.9566 132.711 11.9566C132.223 11.9566 131.824 11.8174 131.516 11.5389C131.207 11.2604 131.053 10.916 131.053 10.5057C131.053 9.98756 131.245 9.59075 131.628 9.31523C132.015 9.03672 132.566 8.89746 133.281 8.89746H133.951V8.57852C133.951 8.32695 133.88 8.1263 133.74 7.97656C133.599 7.82383 133.385 7.74746 133.097 7.74746C132.849 7.74746 132.645 7.81035 132.486 7.93613C132.327 8.05892 132.248 8.21615 132.248 8.40781H131.157C131.157 8.14128 131.245 7.89271 131.422 7.66211C131.598 7.42852 131.838 7.24583 132.14 7.11406C132.446 6.98229 132.786 6.91641 133.16 6.91641C133.729 6.91641 134.183 7.06016 134.521 7.34766C134.86 7.63216 135.033 8.03346 135.042 8.55156V10.7437C135.042 11.181 135.104 11.5299 135.226 11.7904V11.8668H134.112ZM132.913 11.0807C133.129 11.0807 133.331 11.0283 133.519 10.9234C133.711 10.8186 133.855 10.6779 133.951 10.5012V9.58477H133.362C132.958 9.58477 132.654 9.65514 132.45 9.7959C132.247 9.93665 132.145 10.1358 132.145 10.3934C132.145 10.603 132.214 10.7707 132.351 10.8965C132.492 11.0193 132.679 11.0807 132.913 11.0807Z" fill="#627282"/>
<path d="M137.347 11.8668H136.255V4.9668H137.347V11.8668Z" fill="#627282"/>
<path d="M139.701 11.8668H138.609V7.00625H139.701V11.8668ZM138.542 5.74395C138.542 5.57624 138.594 5.43698 138.699 5.32617C138.807 5.21536 138.959 5.15996 139.157 5.15996C139.355 5.15996 139.508 5.21536 139.615 5.32617C139.723 5.43698 139.777 5.57624 139.777 5.74395C139.777 5.90866 139.723 6.04642 139.615 6.15723C139.508 6.26504 139.355 6.31895 139.157 6.31895C138.959 6.31895 138.807 6.26504 138.699 6.15723C138.594 6.04642 138.542 5.90866 138.542 5.74395Z" fill="#627282"/>
<path d="M143.798 11.8668C143.75 11.774 143.708 11.6227 143.672 11.4131C143.324 11.7755 142.899 11.9566 142.396 11.9566C141.908 11.9566 141.51 11.8174 141.201 11.5389C140.893 11.2604 140.738 10.916 140.738 10.5057C140.738 9.98756 140.93 9.59075 141.313 9.31523C141.7 9.03672 142.251 8.89746 142.966 8.89746H143.636V8.57852C143.636 8.32695 143.565 8.1263 143.425 7.97656C143.284 7.82383 143.07 7.74746 142.782 7.74746C142.534 7.74746 142.33 7.81035 142.171 7.93613C142.013 8.05892 141.933 8.21615 141.933 8.40781H140.842C140.842 8.14128 140.93 7.89271 141.107 7.66211C141.283 7.42852 141.523 7.24583 141.825 7.11406C142.131 6.98229 142.471 6.91641 142.845 6.91641C143.414 6.91641 143.868 7.06016 144.206 7.34766C144.545 7.63216 144.718 8.03346 144.727 8.55156V10.7437C144.727 11.181 144.789 11.5299 144.912 11.7904V11.8668H143.798ZM142.598 11.0807C142.814 11.0807 143.016 11.0283 143.205 10.9234C143.396 10.8186 143.54 10.6779 143.636 10.5012V9.58477H143.047C142.643 9.58477 142.339 9.65514 142.135 9.7959C141.932 9.93665 141.83 10.1358 141.83 10.3934C141.83 10.603 141.899 10.7707 142.037 10.8965C142.177 11.0193 142.365 11.0807 142.598 11.0807Z" fill="#627282"/>
<path d="M38.5268 15.3825C39.3761 15.3825 40.0669 14.6917 40.0669 13.8424V8.48467C40.0669 3.80636 36.2613 0 31.583 0H8.58476C3.90646 0 0.100098 3.80636 0.100098 8.48467V19.9838C0.100098 20.8331 0.790859 21.5231 1.64016 21.5231H12.2296L16.0548 30.6238C16.3145 31.2421 16.929 31.6188 17.585 31.5629C18.2441 31.5161 18.799 31.0541 18.9651 30.4139L23.0372 14.7347L25.4945 20.5802C25.7353 21.1524 26.2924 21.5231 26.9145 21.5231H36.9875V31.4829C36.9875 34.4626 34.5634 36.8874 31.583 36.8874H8.58476C5.60505 36.8874 3.18021 34.4633 3.18021 31.4829V26.147C3.18021 25.2977 2.48945 24.607 1.64016 24.607C0.790859 24.607 0.100098 25.2977 0.100098 26.147V31.4829C0.100098 36.1612 3.90646 39.9668 8.58476 39.9668H31.583C36.2613 39.9668 40.0676 36.1604 40.0676 31.4829V19.9838C40.0676 19.1345 39.3769 18.4437 38.5276 18.4437H27.9374L24.1122 9.34302C23.8578 8.73757 23.2455 8.3601 22.5812 8.40313C21.9221 8.45069 21.368 8.91271 21.2019 9.55214L17.1298 25.2305L14.6733 19.3866C14.4325 18.8136 13.8753 18.443 13.2533 18.443H3.18021V8.48467C3.18021 5.50495 5.6043 3.08087 8.58476 3.08087H31.583C34.5627 3.08087 36.9875 5.50495 36.9875 8.48467V13.8424C36.9868 14.6917 37.6775 15.3825 38.5268 15.3825Z" fill="url(#paint0_linear_405_17)"/>
</g>
<defs>
<linearGradient id="paint0_linear_405_17" x1="2.56988" y1="37.629" x2="38.0413" y2="1.89087" gradientUnits="userSpaceOnUse">
<stop stop-color="#00E969"/>
<stop offset="0.1379" stop-color="#00D58C"/>
<stop offset="0.3136" stop-color="#00C1B1"/>
<stop offset="0.4895" stop-color="#00B0CE"/>
<stop offset="0.6635" stop-color="#00A4E2"/>
<stop offset="0.8348" stop-color="#009DEF"/>
<stop offset="1" stop-color="#009BF3"/>
</linearGradient>
<clipPath id="clip0_405_17">
<rect width="144.947" height="40" fill="white" transform="translate(0.100098)"/>
</clipPath>
</defs>
</svg>
