<svg width="88" height="56" viewBox="0 0 88 56" fill="none" xmlns="http://www.w3.org/2000/svg">
<g clip-path="url(#clip0_1898_907)">
<path d="M27.1836 45.8203H28.1166V52.4719L28.0364 53.5253H27.1836V45.8203ZM31.7835 50.7664V50.8717C31.7835 51.2663 31.7367 51.6325 31.6431 51.9703C31.5494 52.3047 31.4123 52.5957 31.2317 52.8431C31.0512 53.0906 30.8304 53.2829 30.5696 53.42C30.3087 53.5571 30.0094 53.6257 29.6717 53.6257C29.3272 53.6257 29.0246 53.5672 28.7637 53.4501C28.5062 53.3297 28.2889 53.1575 28.1116 52.9334C27.9344 52.7094 27.7922 52.4385 27.6852 52.1208C27.5816 51.8031 27.5097 51.4453 27.4695 51.0473V50.5858C27.5097 50.1845 27.5816 49.825 27.6852 49.5073C27.7922 49.1896 27.9344 48.9187 28.1116 48.6947C28.2889 48.4672 28.5062 48.295 28.7637 48.178C29.0212 48.0576 29.3205 47.9974 29.6616 47.9974C30.0028 47.9974 30.3054 48.0643 30.5696 48.198C30.8338 48.3285 31.0545 48.5157 31.2317 48.7599C31.4123 49.004 31.5494 49.2966 31.6431 49.6377C31.7367 49.9755 31.7835 50.3517 31.7835 50.7664ZM30.8505 50.8717V50.7664C30.8505 50.4955 30.8254 50.2413 30.7753 50.0039C30.7251 49.7631 30.6448 49.5524 30.5345 49.3719C30.4241 49.1879 30.2787 49.0441 30.0981 48.9405C29.9175 48.8334 29.6951 48.7799 29.4309 48.7799C29.1968 48.7799 28.9928 48.8201 28.8189 48.9003C28.6484 48.9806 28.5029 49.0893 28.3825 49.2264C28.2621 49.3601 28.1634 49.514 28.0865 49.6879C28.013 49.8584 27.9578 50.0357 27.921 50.2196V51.4285C27.9745 51.6626 28.0614 51.8884 28.1818 52.1057C28.3056 52.3198 28.4694 52.4953 28.6734 52.6324C28.8808 52.7696 29.1366 52.8381 29.4409 52.8381C29.6917 52.8381 29.9058 52.788 30.083 52.6876C30.2636 52.584 30.4091 52.4418 30.5194 52.2612C30.6331 52.0807 30.7167 51.8716 30.7702 51.6342C30.8238 51.3968 30.8505 51.1426 30.8505 50.8717Z" fill="#627282"/>
<path d="M34.4866 52.9635L35.9965 48.0977H36.9897L34.8126 54.3631C34.7625 54.4968 34.6956 54.6406 34.612 54.7945C34.5317 54.9516 34.4281 55.1005 34.301 55.2409C34.1739 55.3814 34.0201 55.4951 33.8395 55.582C33.6622 55.6723 33.4499 55.7175 33.2024 55.7175C33.1288 55.7175 33.0352 55.7074 32.9215 55.6874C32.8078 55.6673 32.7275 55.6506 32.6807 55.6372L32.6757 54.8848C32.7024 54.8881 32.7442 54.8915 32.8011 54.8948C32.8613 54.9015 32.9031 54.9048 32.9265 54.9048C33.1372 54.9048 33.3161 54.8764 33.4632 54.8196C33.6104 54.766 33.7341 54.6741 33.8345 54.5437C33.9381 54.4166 34.0267 54.241 34.1003 54.0169L34.4866 52.9635ZM33.378 48.0977L34.7876 52.3114L35.0283 53.2896L34.3612 53.6307L32.3647 48.0977H33.378Z" fill="#627282"/>
<path d="M40.5397 53.5253V46.2216H42.6968C43.3422 46.2216 43.914 46.3654 44.4123 46.653C44.914 46.9406 45.3019 47.3486 45.5761 47.877C45.8503 48.4054 45.9874 49.0107 45.9874 49.6929V50.0591C45.9874 50.7513 45.8487 51.36 45.5711 51.885C45.2969 52.4101 44.9039 52.8147 44.3923 53.099C43.8839 53.3832 43.3004 53.5253 42.6416 53.5253H40.5397ZM41.8089 47.2449V52.5121H42.6366C43.3021 52.5121 43.812 52.3047 44.1665 51.89C44.5244 51.472 44.7066 50.8734 44.7133 50.0942V49.6879C44.7133 48.8953 44.5411 48.29 44.1966 47.872C43.8522 47.454 43.3522 47.2449 42.6968 47.2449H41.8089Z" fill="#627282"/>
<path d="M46.9698 50.7614C46.9698 50.2296 47.0752 49.7514 47.2859 49.3267C47.4966 48.8986 47.7926 48.5709 48.1738 48.3435C48.555 48.1128 48.993 47.9974 49.488 47.9974C50.2204 47.9974 50.814 48.2332 51.2689 48.7047C51.727 49.1762 51.9744 49.8016 52.0112 50.5808L52.0163 50.8667C52.0163 51.4018 51.9125 51.88 51.7052 52.3014C51.5012 52.7227 51.2069 53.0488 50.8223 53.2795C50.4411 53.5103 49.9997 53.6257 49.4981 53.6257C48.7323 53.6257 48.1186 53.3715 47.6571 52.8632C47.199 52.3515 46.9698 51.671 46.9698 50.8216V50.7614ZM48.1889 50.8667C48.1889 51.4252 48.3042 51.8633 48.535 52.181C48.7657 52.4953 49.0868 52.6525 49.4981 52.6525C49.9094 52.6525 50.2287 52.492 50.4562 52.1709C50.6869 51.8499 50.8022 51.38 50.8022 50.7614C50.8022 50.2129 50.6836 49.7782 50.4462 49.4571C50.2121 49.1361 49.8926 48.9756 49.488 48.9756C49.09 48.9756 48.7741 49.1344 48.54 49.4521C48.3059 49.7665 48.1889 50.238 48.1889 50.8667Z" fill="#627282"/>
<path d="M55.3413 52.6525C55.6457 52.6525 55.8982 52.5639 56.0988 52.3866C56.2995 52.2094 56.4065 51.9904 56.4198 51.7295H57.5686C57.5552 52.0673 57.4499 52.3833 57.2526 52.6776C57.0552 52.9685 56.7877 53.1993 56.4499 53.3698C56.1122 53.5404 55.7477 53.6257 55.3564 53.6257C54.5973 53.6257 53.9953 53.3799 53.5505 52.8883C53.1057 52.3967 52.8834 51.7178 52.8834 50.8517V50.7263C52.8834 49.9002 53.1041 49.2398 53.5455 48.7448C53.9869 48.2465 54.5889 47.9974 55.3514 47.9974C55.9968 47.9974 56.5218 48.1863 56.9265 48.5642C57.3345 48.9388 57.5485 49.432 57.5686 50.044H56.4198C56.4065 49.733 56.2995 49.4772 56.0988 49.2765C55.9015 49.0759 55.649 48.9756 55.3413 48.9756C54.9467 48.9756 54.6424 49.1194 54.4284 49.407C54.2143 49.6912 54.1057 50.1243 54.1023 50.7062V50.9018C54.1023 51.4904 54.2077 51.9302 54.4183 52.2211C54.6324 52.5087 54.94 52.6525 55.3413 52.6525Z" fill="#627282"/>
<path d="M60.081 46.7784V48.0977H61.0391V49.0006H60.081V52.0305C60.081 52.2378 60.1211 52.3883 60.2014 52.482C60.285 52.5723 60.4321 52.6174 60.6428 52.6174C60.7833 52.6174 60.9254 52.6007 61.0692 52.5672V53.5103C60.7916 53.5872 60.5241 53.6257 60.2666 53.6257C59.3302 53.6257 58.862 53.109 58.862 52.0756V49.0006H57.9691V48.0977H58.862V46.7784H60.081Z" fill="#627282"/>
<path d="M61.6604 50.7614C61.6604 50.2296 61.7657 49.7514 61.9764 49.3267C62.1871 48.8986 62.4831 48.5709 62.8643 48.3435C63.2455 48.1128 63.6836 47.9974 64.1786 47.9974C64.9109 47.9974 65.5045 48.2332 65.9593 48.7047C66.4175 49.1762 66.665 49.8016 66.7018 50.5808L66.7068 50.8667C66.7068 51.4018 66.6031 51.88 66.3958 52.3014C66.1918 52.7227 65.8975 53.0488 65.5129 53.2795C65.1317 53.5103 64.6902 53.6257 64.1886 53.6257C63.4228 53.6257 62.8091 53.3715 62.3476 52.8632C61.8895 52.3515 61.6604 51.671 61.6604 50.8216V50.7614ZM62.8793 50.8667C62.8793 51.4252 62.9947 51.8633 63.2255 52.181C63.4562 52.4953 63.7773 52.6525 64.1886 52.6525C64.5999 52.6525 64.9193 52.492 65.1467 52.1709C65.3775 51.8499 65.4928 51.38 65.4928 50.7614C65.4928 50.2129 65.3741 49.7782 65.1367 49.4571C64.9026 49.1361 64.5832 48.9756 64.1786 48.9756C63.7806 48.9756 63.4646 49.1344 63.2305 49.4521C62.9964 49.7665 62.8793 50.238 62.8793 50.8667Z" fill="#627282"/>
<path d="M70.6438 49.2113C70.4833 49.1846 70.3178 49.1712 70.1472 49.1712C69.5887 49.1712 69.2125 49.3852 69.0185 49.8133V53.5253H67.7996V48.0977H68.9634L68.9935 48.7047C69.2877 48.2332 69.6957 47.9974 70.2174 47.9974C70.3913 47.9974 70.5351 48.0208 70.6488 48.0676L70.6438 49.2113Z" fill="#627282"/>
<path d="M74.5708 53.5253C74.5173 53.4217 74.4705 53.2528 74.4304 53.0187C74.0424 53.4234 73.5676 53.6257 73.0057 53.6257C72.4606 53.6257 72.0159 53.4702 71.6714 53.1592C71.327 52.8481 71.1547 52.4636 71.1547 52.0054C71.1547 51.4269 71.3688 50.9838 71.7968 50.6761C72.2282 50.3651 72.8436 50.2096 73.6428 50.2096H74.3902V49.8534C74.3902 49.5725 74.3117 49.3484 74.1545 49.1812C73.9973 49.0107 73.7582 48.9254 73.4371 48.9254C73.1596 48.9254 72.9322 48.9956 72.7549 49.1361C72.5777 49.2732 72.4891 49.4488 72.4891 49.6628H71.2701C71.2701 49.3652 71.3688 49.0876 71.5661 48.8301C71.7634 48.5692 72.0309 48.3652 72.3687 48.2181C72.7098 48.071 73.0894 47.9974 73.5074 47.9974C74.1428 47.9974 74.6494 48.1579 75.0273 48.479C75.4052 48.7967 75.5992 49.2448 75.6092 49.8233V52.2713C75.6092 52.7595 75.6778 53.1491 75.8149 53.4401V53.5253H74.5708ZM73.2315 52.6475C73.4723 52.6475 73.698 52.589 73.9087 52.4719C74.1227 52.3549 74.2832 52.1977 74.3902 52.0004V50.9771H73.7331C73.2816 50.9771 72.9422 51.0557 72.7148 51.2128C72.4874 51.37 72.3737 51.5924 72.3737 51.88C72.3737 52.1141 72.4506 52.3014 72.6044 52.4418C72.7616 52.5789 72.9706 52.6475 73.2315 52.6475Z" fill="#627282"/>
<path d="M78.247 53.5253H77.0281V45.8203H78.247V53.5253Z" fill="#627282"/>
<path d="M80.94 53.5253H79.7211V48.0977H80.94V53.5253ZM79.6458 46.6881C79.6458 46.5009 79.7043 46.3454 79.8214 46.2216C79.9418 46.0979 80.1123 46.036 80.3331 46.036C80.5538 46.036 80.7243 46.0979 80.8447 46.2216C80.9651 46.3454 81.0253 46.5009 81.0253 46.6881C81.0253 46.8721 80.9651 47.0259 80.8447 47.1496C80.7243 47.27 80.5538 47.3302 80.3331 47.3302C80.1123 47.3302 79.9418 47.27 79.8214 47.1496C79.7043 47.0259 79.6458 46.8721 79.6458 46.6881Z" fill="#627282"/>
<path d="M85.5794 53.5253C85.5258 53.4217 85.479 53.2528 85.4389 53.0187C85.051 53.4234 84.5761 53.6257 84.0143 53.6257C83.4692 53.6257 83.0244 53.4702 82.6799 53.1592C82.3355 52.8481 82.1633 52.4636 82.1633 52.0054C82.1633 51.4269 82.3773 50.9838 82.8053 50.6761C83.2367 50.3651 83.8521 50.2096 84.6513 50.2096H85.3988V49.8534C85.3988 49.5725 85.3202 49.3484 85.163 49.1812C85.0058 49.0107 84.7667 48.9254 84.4457 48.9254C84.1681 48.9254 83.9407 48.9956 83.7635 49.1361C83.5862 49.2732 83.4976 49.4488 83.4976 49.6628H82.2786C82.2786 49.3652 82.3773 49.0876 82.5746 48.8301C82.7719 48.5692 83.0394 48.3652 83.3772 48.2181C83.7183 48.071 84.0979 47.9974 84.5159 47.9974C85.1513 47.9974 85.6579 48.1579 86.0358 48.479C86.4137 48.7967 86.6077 49.2448 86.6177 49.8233V52.2713C86.6177 52.7595 86.6863 53.1491 86.8234 53.4401V53.5253H85.5794ZM84.24 52.6475C84.4808 52.6475 84.7065 52.589 84.9172 52.4719C85.1312 52.3549 85.2918 52.1977 85.3988 52.0004V50.9771H84.7416C84.2902 50.9771 83.9507 51.0557 83.7233 51.2128C83.4959 51.37 83.3822 51.5924 83.3822 51.88C83.3822 52.1141 83.4591 52.3014 83.613 52.4418C83.7701 52.5789 83.9792 52.6475 84.24 52.6475Z" fill="#627282"/>
<path d="M21.5964 19.9527C21.7171 20.0733 21.8804 20.1823 22.0597 20.282C22.3665 20.3908 22.6283 20.4994 22.8452 20.6075C23.1571 20.7639 23.3722 20.8811 23.4893 20.9588L22.6695 23.3009C22.4939 23.1838 22.2405 23.0571 21.9083 22.9208C21.5762 22.7846 21.2004 22.6472 20.7809 22.511C20.3615 22.3747 19.9026 22.2618 19.4055 22.1745C18.9083 22.0862 18.4047 22.0425 17.898 22.0425C16.8249 22.0425 15.8582 22.2278 15.0002 22.5982C14.141 22.9687 13.4096 23.5064 12.805 24.2079C12.2003 24.9106 11.7361 25.7644 11.4146 26.7693C11.0931 27.7743 10.9313 28.9017 10.9313 30.1505C10.9313 31.361 11.0729 32.4628 11.356 33.4593C11.6392 34.4547 12.0629 35.3085 12.6293 36.0207C13.1946 36.7329 13.9026 37.2844 14.7521 37.6751C15.6006 38.0658 16.5917 38.2606 17.7234 38.2606C19.0307 38.2606 20.1145 38.1244 20.9726 37.8508C21.8317 37.5772 22.4758 37.3334 22.9048 37.1183L23.6373 39.4604C23.4999 39.5584 23.2561 39.6798 22.9048 39.8267C22.5535 39.9736 22.1149 40.1152 21.5868 40.2514C21.0588 40.3877 20.4456 40.5048 19.7419 40.6028C19.0403 40.7007 18.2791 40.7497 17.4594 40.7497C16.035 40.7497 14.7372 40.5155 13.5661 40.047C12.3951 39.5786 11.3901 38.8951 10.5501 37.9977C9.71123 37.1002 9.06183 35.992 8.60298 34.6751C8.14414 33.3571 7.91525 31.8496 7.91525 30.1516C7.91525 28.4535 8.17395 26.9461 8.69135 25.6281C8.98932 24.8691 9.34697 24.1799 9.7645 23.5605C9.69152 23.5613 9.61806 23.5617 9.54413 23.5617C8.1197 23.5617 6.82195 23.3275 5.65089 22.8591C4.47983 22.3907 3.47379 21.7072 2.63488 20.8097C1.79598 19.9123 1.14657 18.804 0.687731 17.4871C0.228889 16.1702 0 14.6617 0 12.9636C0 11.2656 0.258698 9.75812 0.776093 8.44014C1.29349 7.12217 1.9908 6.01498 2.86909 5.11753C3.74739 4.22007 4.7726 3.5366 5.94366 3.06817C7.11472 2.59975 8.36349 2.36554 9.69105 2.36554C10.5299 2.36554 11.2869 2.42409 11.9597 2.5412C12.6336 2.6583 13.2191 2.79457 13.7163 2.95107C14.2145 3.10756 14.6191 3.263 14.931 3.41949C15.2429 3.57599 15.458 3.69309 15.5751 3.77081L14.7553 6.11293C14.5797 5.99582 14.3263 5.86913 13.9942 5.7318C13.662 5.59553 13.2862 5.4582 12.8667 5.32193C12.4473 5.18566 11.9885 5.07281 11.4913 4.98552C10.9941 4.89716 10.4906 4.85351 9.98381 4.85351C8.91069 4.85351 7.94404 5.03875 7.08597 5.40923C6.22684 5.78077 5.49546 6.31733 4.89077 7.0189C4.28608 7.72154 3.82191 8.57535 3.5004 9.58033C3.17783 10.5853 3.01707 11.7127 3.01707 12.9615C3.01707 14.1719 3.15867 15.2738 3.44185 16.2703C3.72503 17.2657 4.14874 18.1195 4.71511 18.8317C5.28148 19.5439 5.98837 20.0954 6.83792 20.4861C7.68747 20.8768 8.67755 21.0716 9.80922 21.0716C11.0739 21.0716 12.1383 20.963 12.9928 20.6553C13.2717 20.5083 13.56 20.3753 13.8578 20.2561C15.0289 19.7877 16.2777 19.5535 17.6052 19.5535C17.9023 19.5535 18.1892 19.5608 18.4656 19.5755C18.4236 19.2692 18.4026 18.9399 18.4026 18.5879V0.465229L21.1035 0V18.1514C21.1035 18.5964 21.1419 18.9648 21.2196 19.2554C21.2962 19.546 21.4229 19.7781 21.5964 19.9527Z" fill="#00C3A5"/>
<path d="M28.575 5.56571C28.0874 5.56571 27.6722 5.40496 27.3305 5.08238C26.9887 4.75981 26.8184 4.32652 26.8184 3.77932C26.8184 3.23318 26.9887 2.79882 27.3305 2.47625C27.6722 2.15474 28.0863 1.99292 28.575 1.99292C29.0626 1.99292 29.4777 2.15367 29.8195 2.47625C30.1612 2.79882 30.3316 3.23318 30.3316 3.77932C30.3316 4.32546 30.1602 4.75981 29.8195 5.08238C29.4767 5.40496 29.0626 5.56571 28.575 5.56571Z" fill="#00C3A5"/>
<path d="M29.9099 23.6203L29.9503 8.31772H27.2271L27.2737 23.1198L27.2111 36.6904C27.2111 38.1339 27.5592 39.1975 28.2555 39.881C28.9517 40.5644 30.1313 40.9253 31.7953 40.9647L32.1711 38.6812C31.7452 38.6226 31.3875 38.5502 31.098 38.4618C30.8084 38.3746 30.5752 38.2425 30.4017 38.0669C30.2282 37.8912 30.1015 37.657 30.0248 37.3642C29.9471 37.0715 29.9088 36.701 29.9088 36.2517L29.9099 23.6203Z" fill="#00C3A5"/>
<path d="M37.2279 8.28044C36.1931 8.4561 35.3638 8.62218 34.7389 8.77761V23.5617H37.4611V10.7099C37.559 10.6896 37.7198 10.6609 37.9444 10.6215C38.169 10.5832 38.4224 10.5491 38.7056 10.5193C38.9888 10.4895 39.2869 10.4661 39.5988 10.4458C39.9118 10.4267 40.2141 10.4171 40.5069 10.4171C41.2287 10.4171 41.8344 10.5097 42.322 10.695C42.8096 10.8813 43.2003 11.1783 43.4931 11.5882C43.7859 11.997 43.9945 12.5346 44.1223 13.1978C44.249 13.8611 44.3128 14.6617 44.3128 15.5985V23.5617H47.0361V15.013C47.0361 13.9793 46.9381 13.0328 46.7433 12.1737C46.5474 11.3156 46.211 10.5789 45.733 9.96357C45.255 9.3493 44.6152 8.87129 43.8157 8.52956C43.0151 8.18889 42.0101 8.01749 40.7997 8.01749C39.4529 8.01749 38.2616 8.10478 37.2279 8.28044Z" fill="#00C3A5"/>
<path d="M53.1139 5.58592C52.6263 5.58592 52.2111 5.42517 51.8694 5.10259C51.5276 4.78108 51.3573 4.34673 51.3573 3.79952C51.3573 3.25338 51.5276 2.81903 51.8694 2.49645C52.2111 2.17388 52.6252 2.01312 53.1139 2.01312C53.6015 2.01312 54.0167 2.17388 54.3584 2.49645C54.7001 2.81903 54.8705 3.25338 54.8705 3.79952C54.8705 4.34566 54.6991 4.78002 54.3584 5.10259C54.0167 5.42517 53.6025 5.58592 53.1139 5.58592Z" fill="#00C3A5"/>
<path d="M54.4904 23.5617H51.7682V8.33795H54.4904V23.5617Z" fill="#00C3A5"/>
<path fill-rule="evenodd" clip-rule="evenodd" d="M63.0145 22.8591C64.1856 23.3275 65.4833 23.5617 66.9078 23.5617C67.7275 23.5617 68.4887 23.5127 69.1913 23.4148C69.8842 23.3184 70.4903 23.2034 71.0118 23.0698V40.3962C71.8113 40.591 72.7045 40.7231 73.6904 40.7912C74.6762 40.8593 75.5791 40.8934 76.3988 40.8934C78.0574 40.8934 79.5797 40.6837 80.9658 40.2642C82.3519 39.8437 83.5422 39.2092 84.5376 38.3607C85.533 37.5112 86.3048 36.438 86.8509 35.1403C87.3971 33.8425 87.6707 32.3149 87.6707 30.5583C87.6707 28.8017 87.3971 27.275 86.8509 25.9762C86.3037 24.6785 85.533 23.6043 84.5376 22.7558C83.5422 21.9073 82.3519 21.2728 80.9658 20.8534C79.5797 20.4339 78.0574 20.2242 76.3988 20.2242C75.5791 20.2242 74.6762 20.2583 73.6904 20.3264C72.7166 20.3937 71.8343 20.5233 71.0413 20.7142C70.9253 20.7296 70.786 20.7548 70.6158 20.7948C69.7375 21.0014 68.4791 21.0716 67.1718 21.0716C66.0401 21.0716 65.049 20.8768 64.2005 20.4861C63.351 20.0954 62.643 19.5439 62.0777 18.8317C61.5113 18.1195 61.0876 17.2657 60.8044 16.2703C60.5213 15.2738 60.3797 14.1719 60.3797 12.9615C60.3797 11.7127 60.5404 10.5853 60.863 9.58033C61.1845 8.57535 61.6476 7.72154 62.2534 7.0189C62.857 6.31733 63.5894 5.78077 64.4486 5.40923C65.3066 5.03875 66.2733 4.85351 67.3464 4.85351C67.8531 4.85351 68.3567 4.89716 68.8539 4.98552C69.3521 5.07281 69.8099 5.18566 70.2304 5.32193C70.6498 5.4582 71.0257 5.59553 71.3578 5.7318C71.69 5.86913 71.9433 5.99582 72.119 6.11293L72.9387 3.77081C72.8216 3.69309 72.6066 3.57599 72.2947 3.41949C71.9827 3.263 71.5782 3.10756 71.0799 2.95107C70.5817 2.79457 69.9962 2.6583 69.3234 2.5412C68.6505 2.42409 67.8936 2.36554 67.0547 2.36554C65.7271 2.36554 64.4784 2.59975 63.3073 3.06817C62.1362 3.5366 61.111 4.22007 60.2327 5.11753C59.3545 6.01498 58.6571 7.12217 58.1397 8.44014C57.6223 9.75812 57.3636 11.2656 57.3636 12.9636C57.3636 14.6617 57.5925 16.1702 58.0514 17.4871C58.5102 18.804 59.1596 19.9123 59.9985 20.8097C60.8374 21.7072 61.8435 22.3907 63.0145 22.8591ZM82.6649 36.3401C81.3374 37.7166 79.3274 38.4044 76.634 38.4044C75.8334 38.4044 75.2138 38.3948 74.7752 38.3756C74.3366 38.3565 74.0289 38.3362 73.8532 38.3171V22.8005C74.0289 22.7814 74.3366 22.7611 74.7752 22.742C75.2138 22.7217 75.8334 22.7122 76.634 22.7122C79.3274 22.7122 81.3374 23.3999 82.6649 24.7764C83.9914 26.1519 84.6557 28.0799 84.6557 30.5583C84.6557 33.0367 83.9914 34.9646 82.6649 36.3401Z" fill="#00C3A5"/>
<path d="M64.0835 40.0609C63.4586 40.2174 62.6346 40.3834 61.6094 40.558C60.5852 40.7337 59.3993 40.8221 58.0526 40.8221C56.8815 40.8221 55.8957 40.6507 55.0962 40.31C54.2956 39.9683 53.6515 39.486 53.1639 38.8611C52.6753 38.2362 52.325 37.4994 52.11 36.651C51.8949 35.8014 51.7874 34.8603 51.7874 33.8255V25.2768H54.5106V33.24C54.5106 35.0945 54.8034 36.421 55.3889 37.2216C55.9745 38.0222 56.9592 38.4214 58.3453 38.4214C58.6381 38.4214 58.9404 38.4118 59.2534 38.3927C59.5654 38.3735 59.8581 38.349 60.1317 38.3192C60.4053 38.2894 60.6534 38.2606 60.878 38.2308C61.1026 38.201 61.2634 38.168 61.3613 38.1286V25.2757H64.0835V40.0609Z" fill="#00C3A5"/>
<path d="M40.8531 26.3672H40.8222C39.4925 26.3746 38.2395 26.8473 37.2941 27.699C36.4716 28.4398 35.9634 29.3903 35.8283 30.4204C33.7119 30.4802 32.2969 32.5896 32.2969 34.5625C32.2969 36.761 34.0862 38.5634 36.3296 38.6758L36.3344 38.6761C36.4065 38.6796 36.4791 38.6814 36.5521 38.6814C36.6161 38.6814 36.6801 38.6795 36.7441 38.6761H37.3101V36.8194H36.3296C35.0957 36.7364 34.1706 35.7463 34.1706 34.5625C34.1706 33.9663 34.4058 33.2828 34.7923 32.7952C34.8679 32.6611 34.9722 32.5429 35.1021 32.4503C35.1692 32.3843 35.2416 32.3247 35.3289 32.2778C35.4311 32.1991 35.9208 31.984 36.0741 31.9638C36.0979 31.9584 36.1235 31.9503 36.15 31.9418C36.1969 31.9269 36.2464 31.9111 36.2934 31.9084C36.37 31.8935 36.568 31.8935 36.5787 31.8935C36.6451 31.8788 36.8338 31.912 36.9279 31.9285C36.956 31.9335 36.9757 31.9369 36.9811 31.9372C36.9822 31.9368 36.9833 31.9362 36.9844 31.9355C37.0437 31.9477 37.0936 31.9578 37.1264 31.9644C37.1412 31.9674 37.1531 31.9698 37.16 31.9712C37.1716 31.9724 37.1838 31.9732 37.1959 31.9739C37.216 31.9752 37.2362 31.9764 37.2547 31.9798C37.2739 31.9744 37.292 31.9649 37.308 31.951C37.3133 31.9468 37.3229 31.77 37.3229 31.7466C37.3229 31.6678 37.3314 31.5901 37.3463 31.5145C37.3569 31.0642 37.9371 29.7707 38.084 29.6025C38.2161 29.4268 38.5386 29.0968 38.5471 29.0904C39.2338 28.5997 39.9609 28.2451 40.852 28.2409C42.3584 28.2409 43.6189 29.1532 43.9393 30.3679C43.9787 30.4797 44.1086 31.1217 44.0948 31.2931C44.115 31.4091 44.132 31.6348 44.1171 31.769C44.1578 31.8156 44.2175 31.7785 44.2621 31.7507C44.2691 31.7463 44.2758 31.7422 44.2819 31.7386C44.2858 31.7364 44.2894 31.7344 44.2928 31.7328C44.3284 31.7163 44.3613 31.7009 44.3921 31.6865C44.6759 31.5538 44.7877 31.5015 45.2953 31.4169C45.4057 31.4014 45.5238 31.3905 45.6608 31.3878H45.7044C47.081 31.3878 48.2009 32.6143 48.2009 34.1207C48.2009 35.4555 47.2999 36.5704 46.114 36.8071L39.0666 36.8333L39.0741 38.6931L44.6679 38.7109C44.9867 38.7239 45.3139 38.7261 45.6438 38.7261C48.087 38.7261 50.0746 36.6597 50.0746 34.1196C50.0746 31.5795 48.1147 29.5141 45.7044 29.5141L45.6432 29.515C44.9722 27.6884 43.0749 26.3672 40.8531 26.3672Z" fill="#627282"/>
<path d="M37.193 36.73C37.193 36.73 37.1823 36.7321 37.1642 36.7353L37.193 36.73Z" fill="#627282"/>
</g>
<defs>
<clipPath id="clip0_1898_907">
<rect width="88" height="56" fill="white"/>
</clipPath>
</defs>
</svg>
